<svg xmlns="http://www.w3.org/2000/svg" xmlns:xlink="http://www.w3.org/1999/xlink" version="1.1" width="400.111pt" height="191.436pt" viewBox="0 0 400.111 191.436">
<clipPath id="cp0">
<path transform="matrix(1,0,0,-1,.199,184.416)" d="M 0 0 L 387.1664 0 L 387.1664 171.16819 L 0 171.16819 Z "/>
</clipPath>
<g clip-path="url(#cp0)">
<path transform="matrix(1,0,0,-1,.199,184.416)" d="M 38.3333 0 C 38.3333 0 39.48727 3.39058 39.93048 4.67302 C 40.3737 5.95546 41.08447 7.98901 41.5277 9.24298 C 41.9709 10.49695 42.68166 12.48502 43.12488 13.71077 C 43.56808 14.93651 44.27885 16.87953 44.72208 18.07733 C 45.16528 19.27513 45.87605 21.17358 46.31926 22.34366 C 46.76248 23.51375 47.47325 25.36794 47.91646 26.51057 C 48.35968 27.65321 49.07045 29.46365 49.51366 30.57912 C 49.95686 31.69458 50.66763 33.46156 51.11086 34.5501 C 51.55406 35.63861 52.26483 37.36266 52.70805 38.42451 C 53.15126 39.48637 53.86203 41.16785 54.30525 42.2033 C 54.74846 43.23875 55.45923 44.87805 55.90244 45.88734 C 56.34566 46.89664 57.05643 48.49423 57.49963 49.47762 C 57.94286 50.461 58.65363 52.01724 59.09683 52.97499 C 59.54004 53.93275 60.25081 55.44812 60.69403 56.38048 C 61.13724 57.31285 61.848 58.7877 62.29123 59.69495 C 62.73444 60.60217 63.4452 62.03694 63.88841 62.91933 C 64.33163 63.80171 65.0424 65.19681 65.48561 66.05458 C 65.92883 66.91235 66.6396 68.26817 67.08281 69.1016 C 67.52603 69.93501 68.23679 71.25198 68.68001 72.06131 C 69.12321 72.87064 69.83398 74.14922 70.2772 74.93471 C 70.72041 75.7202 71.43118 76.96072 71.8744 77.72263 C 72.31761 78.48454 73.02838 79.68747 73.47159 80.42606 C 73.91481 81.16464 74.62558 82.33038 75.06879 83.04591 C 75.51201 83.76143 76.66599 85.58313 76.66599 85.58313 L 76.66599 85.58409 L 38.3333 85.58409 Z " fill="#e6cccc"/>
<path transform="matrix(1,0,0,-1,.199,184.416)" d="M 76.66661 85.58409 C 76.66661 85.58409 81.28258 92.5061 83.05545 94.92499 C 84.82832 97.34389 87.67145 100.93703 89.44432 103.01782 C 91.21718 105.09863 94.0603 108.16281 95.83318 109.922 C 97.60605 111.68118 100.44916 114.24283 102.22203 115.69691 C 103.9949 117.151 106.83803 119.23659 108.61089 120.40205 C 110.38376 121.5675 113.22688 123.2035 114.99976 124.09685 C 116.77263 124.99019 119.61574 126.20299 121.38861 126.8407 C 123.16148 127.47841 126.00458 128.29451 127.77745 128.69307 C 129.55033 129.09163 132.39345 129.53743 134.16632 129.71335 C 135.93918 129.88927 138.7823 129.99124 140.55518 129.96103 C 142.32805 129.9308 145.17116 129.71538 146.94403 129.4955 C 148.7169 129.2756 151.56003 128.76926 153.33289 128.37622 C 155.10576 127.98317 157.94889 127.21231 159.72176 126.66257 C 161.49463 126.11284 164.33774 125.10396 166.11061 124.41405 C 167.88349 123.72414 170.72661 122.50368 172.49947 121.69006 C 174.27234 120.87645 177.11545 119.47086 178.88832 118.55003 C 180.66118 117.62923 183.5043 116.06496 185.27718 115.05344 C 187.05005 114.0419 189.89316 112.34534 191.66603 111.2596 C 193.4389 110.17386 196.28203 108.37155 198.0549 107.22809 C 199.82776 106.08463 202.67089 104.20296 204.44376 103.01825 C 206.21663 101.83354 209.05974 99.89897 210.83261 98.68953 C 212.60549 97.48009 215.44861 95.51909 217.22147 94.30139 C 218.99434 93.0837 221.83747 91.12267 223.61034 89.91324 C 225.3832 88.7038 229.99918 85.58453 229.99918 85.58453 L 229.99918 85.58409 L 76.66661 85.58409 Z " fill="#cccce6"/>
<path transform="matrix(1,0,0,-1,.199,184.416)" d="M 229.99985 85.58409 C 229.99985 85.58409 233.46186 83.27968 234.7915 82.4123 C 236.12117 81.54489 238.25351 80.17084 239.58318 79.33243 C 240.91283 78.49402 243.04518 77.17203 244.37483 76.36958 C 245.7045 75.56712 247.83684 74.30836 249.1665 73.54883 C 250.49616 72.78928 252.62851 71.6049 253.95816 70.8952 C 255.28781 70.18552 257.42018 69.08669 258.74983 68.43382 C 260.07948 67.78096 262.21186 66.77884 263.5415 66.18976 C 264.87117 65.60068 267.0035 64.7064 268.33317 64.18806 C 269.6628 63.66972 271.79518 62.89447 273.12483 62.45381 C 274.45448 62.01315 276.58683 61.36809 277.91648 61.01208 C 279.24617 60.65608 281.3785 60.15234 282.70817 59.88795 C 284.0378 59.62357 286.17015 59.27232 287.4998 59.1065 C 288.82948 58.94067 290.96183 58.75308 292.29148 58.6928 C 293.62113 58.6325 295.75349 58.61972 297.08314 58.67189 C 298.4128 58.72406 300.54515 58.89728 301.8748 59.0689 C 303.20445 59.24051 305.3368 59.61084 306.66648 59.90886 C 307.99613 60.20688 310.12846 60.78548 311.45814 61.21686 C 312.78779 61.64822 314.92015 62.44629 316.2498 63.01797 C 317.57945 63.58966 319.7118 64.6183 321.04148 65.33727 C 322.37113 66.05623 324.50346 67.3266 325.8331 68.19981 C 327.16279 69.07301 329.2951 70.59631 330.6248 71.63069 C 331.95445 72.66508 334.0868 74.45245 335.41645 75.655 C 336.7461 76.85753 338.87846 78.92012 340.2081 80.29776 C 341.53779 81.67538 344.99977 85.58409 344.99977 85.58409 L 229.99985 85.58409 Z " fill="#e6cccc"/>
<path transform="matrix(1,0,0,-1,.199,184.416)" d="M 344.99977 85.58409 C 344.99977 85.58409 346.15373 86.95323 346.59696 87.4935 C 347.04017 88.03378 347.75093 88.91685 348.19416 89.47813 C 348.63737 90.03943 349.34815 90.95639 349.79136 91.53894 C 350.23457 92.12148 350.94535 93.07271 351.38853 93.67677 C 351.83177 94.28084 352.54255 95.26682 352.98573 95.89264 C 353.42897 96.51848 354.1397 97.53955 354.58293 98.18742 C 355.02616 98.83531 355.7369 99.89194 356.1801 100.5621 C 356.62336 101.23227 357.33409 102.32483 357.7773 103.01753 C 358.22053 103.71025 358.9313 104.83919 359.3745 105.5547 C 359.81773 106.27022 360.5285 107.43594 360.9717 108.17451 C 361.41493 108.91309 362.1257 110.11601 362.5689 110.8779 C 363.01213 111.6398 363.72288 112.8803 364.16609 113.66576 C 364.6093 114.45123 365.32008 115.72978 365.76329 116.53911 C 366.2065 117.34842 366.91728 118.6654 367.3605 119.49881 C 367.8037 120.33221 368.51448 121.68799 368.95768 122.54575 C 369.4009 123.4035 370.11167 124.79858 370.55488 125.68095 C 370.99809 126.56332 371.70887 127.99802 372.15205 128.90526 C 372.59529 129.8125 373.30604 131.28737 373.74925 132.21971 C 374.19248 133.15207 374.90324 134.66736 375.34645 135.62509 C 375.78968 136.58284 376.50044 138.13909 376.94367 139.12247 C 377.38688 140.10585 378.09764 141.70343 378.54084 142.71269 C 378.98405 143.72197 379.69483 145.36122 380.13804 146.39665 C 380.58125 147.4321 381.29203 149.11359 381.73524 150.17543 C 382.17845 151.23728 383.3324 154.04975 383.3324 154.04975 L 383.3324 85.58409 L 344.99977 85.58409 Z " fill="#cccce6"/>
<path transform="matrix(1,0,0,-1,.199,184.416)" stroke-width="1.59404" stroke-linecap="butt" stroke-miterlimit="10" stroke-linejoin="miter" fill="none" stroke="#000080" d="M 38.3333 0 C 38.3333 0 48.7193 28.83725 52.7083 38.42508 C 56.6973 48.01291 63.09428 61.57065 67.08328 69.10245 C 71.07228 76.63426 77.46927 87.04549 81.45827 92.70912 C 85.44727 98.37276 91.84427 105.93874 95.83327 109.92206 C 99.82227 113.9054 106.21925 118.92737 110.20825 121.41824 C 114.19725 123.90912 120.59425 126.68835 124.58325 127.87465 C 128.57225 129.06096 134.96924 129.89873 138.95824 129.9683 C 142.94724 130.03789 149.34423 129.23542 153.33322 128.37615 C 157.32222 127.51686 163.71923 125.37544 167.70822 123.77515 C 171.69722 122.17487 178.09421 118.99577 182.0832 116.84233 C 186.0722 114.6889 192.46921 110.77339 196.4582 108.25468 C 200.4472 105.73598 206.8442 101.38528 210.83319 98.68915 C 214.82219 95.99303 221.21918 91.50844 225.20818 88.82274 C 229.19718 86.13704 235.59418 81.81984 239.58318 79.33243 C 243.57218 76.84502 249.96916 72.99646 253.95816 70.8952 C 257.94718 68.79396 264.34416 65.71529 268.33317 64.18806 C 272.32218 62.66084 278.71916 60.65332 282.70817 59.88795 C 286.69715 59.1226 293.09413 58.48752 297.08314 58.67189 C 301.07215 58.85626 307.46913 59.89488 311.45814 61.21686 C 315.44715 62.53883 321.84413 65.55237 325.8331 68.19981 C 329.8221 70.84724 336.2191 76.13701 340.2081 80.29776 C 344.1971 84.45851 350.5941 92.32576 354.5831 98.18768 C 358.5721 104.04962 364.9691 114.79558 368.95808 122.54654 C 372.94709 130.29752 383.33308 154.05136 383.33308 154.05136 "/>
<symbol id="font_1_1">
<path d="M .136 .11100001 C .101 .052 .067 .032 .019000002 .029000001 C .008000001 .028 0 .028 0 .010000001 C 0 .004 .004999999 0 .012000002 0 C .030000002 0 .075 .002 .093 .002 C .122 .002 .15400002 0 .18200001 0 C .18800003 0 .20000002 0 .20000002 .019000002 C .20000002 .028 .192 .029000001 .18600002 .029000001 C .16300002 .031000002 .144 .039 .144 .063 C .144 .07700001 .15 .08800001 .16300002 .11000001 L .239 .23600002 L .494 .23600002 C .49500004 .22700002 .49500004 .21900001 .49600003 .21000001 C .49900005 .18400002 .51100006 .080000009 .51100006 .061000006 C .51100006 .031000002 .46 .029000001 .444 .029000001 C .433 .029000001 .42200003 .029000001 .42200003 .011000001 C .42200003 0 .43100003 0 .437 0 C .45400004 0 .474 .002 .49100004 .002 L .54800006 .002 C .609 .002 .65300008 0 .65400007 0 C .6610001 0 .67200008 0 .67200008 .019000002 C .67200008 .029000001 .66300007 .029000001 .64800009 .029000001 C .59300008 .029000001 .59200009 .038000004 .58900007 .068 L .52800008 .69200006 C .526 .712 .5220001 .71400007 .51100006 .71400007 C .50100007 .71400007 .49500004 .712 .48600004 .697 L .136 .11100001 M .256 .26500003 L .45700003 .601 L .49100004 .26500003 L .256 .26500003 Z "/>
</symbol>
<use xlink:href="#font_1_1" transform="matrix(11.9552,0,0,-11.9552,51.351476,112.29101)"/>
<symbol id="font_2_1">
<path d="M .21800001 .637 C .21800001 .66400006 .216 .665 .18900003 .665 C .14800002 .625 .09500001 .601 0 .601 L 0 .568 C .027000003 .568 .081 .568 .13900002 .595 L .13900002 .082 C .13900002 .045 .136 .033 .04100001 .033 L .0060000049 .033 L .0060000049 0 C .047000007 .003 .13300002 .003 .17800002 .003 C .223 .003 .31 .003 .351 0 L .351 .033 L .31600005 .033 C .221 .033 .21800001 .045 .21800001 .082 L .21800001 .637 Z "/>
</symbol>
<use xlink:href="#font_2_1" transform="matrix(7.9701,0,0,-7.9701,60.48513,114.08501)"/>
<use xlink:href="#font_1_1" transform="matrix(11.9552,0,0,-11.9552,147.18349,91.75101)"/>
<symbol id="font_2_2">
<path d="M .229 .20400001 C .245 .21900001 .287 .252 .303 .266 C .365 .323 .42400003 .37800003 .42400003 .469 C .42400003 .588 .324 .665 .199 .665 C .078999999 .665 0 .574 0 .485 C 0 .43600003 .039000006 .42900003 .053000004 .42900003 C .074 .42900003 .105000007 .44400005 .105000007 .48200003 C .105000007 .53400006 .055 .53400006 .042999999 .53400006 C .072 .60700008 .139 .632 .18800001 .632 C .28100003 .632 .32900004 .55300006 .32900004 .469 C .32900004 .365 .256 .289 .13800001 .16800002 L .012000002 .038000004 C 0 .027 0 .025 0 0 L .395 0 L .42400003 .179 L .393 .179 C .39000003 .15900001 .38200004 .109000008 .37 .09 C .36400003 .082 .28800003 .082 .272 .082 L .094 .082 L .229 .20400001 Z "/>
</symbol>
<use xlink:href="#font_2_2" transform="matrix(7.9701,0,0,-7.9701,155.97441,93.545009)"/>
<use xlink:href="#font_1_1" transform="matrix(11.9552,0,0,-11.9552,281.34849,112.29101)"/>
<symbol id="font_2_3">
<path d="M .20900002 .35500003 C .28800003 .35500003 .33800004 .29700003 .33800004 .192 C .33800004 .067 .26700003 .030000002 .21400002 .030000002 C .15900001 .030000002 .08400001 .050000006 .049 .103 C .08500001 .103 .110000018 .126 .110000018 .15900001 C .110000018 .191 .08700001 .214 .055000005 .214 C .028 .214 0 .19700001 0 .157 C 0 .062000004 .10200001 0 .21600002 0 C .349 0 .44200004 .09200001 .44200004 .192 C .44200004 .275 .37600003 .351 .27400003 .37300004 C .35300002 .40100003 .41200004 .469 .41200004 .549 C .41200004 .62900009 .32200004 .68600007 .21800003 .68600007 C .111 .68600007 .029999998 .6280001 .029999998 .55200007 C .029999998 .51500007 .055000005 .499 .081 .499 C .112 .499 .13200002 .521 .13200002 .5500001 C .13200002 .5870001 .10000001 .6010001 .07800001 .60200008 C .120000008 .65700009 .19700001 .6600001 .215 .6600001 C .24100003 .6600001 .31700004 .65200009 .31700004 .549 C .31700004 .47900004 .28800003 .437 .27400003 .421 C .24400002 .39000003 .22100002 .388 .16000001 .384 C .141 .38300003 .133 .38200004 .133 .36900003 C .133 .35500003 .142 .35500003 .15900001 .35500003 L .20900002 .35500003 Z "/>
</symbol>
<use xlink:href="#font_2_3" transform="matrix(7.9701,0,0,-7.9701,290.0677,114.25238)"/>
<use xlink:href="#font_1_1" transform="matrix(11.9552,0,0,-11.9552,358.01347,91.75101)"/>
<symbol id="font_2_4">
<path d="M .36400003 .647 C .36400003 .66700008 .36400003 .675 .34300003 .675 C .33 .675 .32900004 .674 .319 .66 L 0 .19700001 L 0 .164 L .282 .164 L .282 .081 C .282 .044000005 .279 .033 .202 .033 L .179 .033 L .179 0 C .264 .003 .266 .003 .323 .003 C .38000003 .003 .38200004 .003 .467 0 L .467 .033 L .44400005 .033 C .367 .033 .36400003 .044000005 .36400003 .081 L .36400003 .164 L .47 .164 L .47 .19700001 L .36400003 .19700001 L .36400003 .647 M .289 .56600007 L .289 .19700001 L .035000005 .19700001 L .289 .56600007 Z "/>
</symbol>
<use xlink:href="#font_2_4" transform="matrix(7.9701,0,0,-7.9701,366.6221,93.545009)"/>
<symbol id="font_1_4">
<path d="M .23600002 .09200001 C .20900002 .054000006 .17000002 .019999996 .121 .019999996 C .109000008 .019999996 .061000006 .022 .046000005 .068 C .049000004 .067 .053999999 .067 .056 .067 C .086 .067 .106 .093 .106 .116000007 C .106 .139 .087000008 .14700002 .072000008 .14700002 C .056 .14700002 .021 .135 .021 .086 C .021 .034999998 .064 0 .121 0 C .22100002 0 .322 .09200001 .35 .20300001 L .448 .59300008 C .449 .59800007 .451 .60400006 .451 .61 C .451 .62500008 .439 .63500007 .42400003 .63500007 C .41500003 .63500007 .39400003 .63100007 .386 .601 L .312 .307 C .307 .289 .307 .287 .299 .27600003 C .279 .24800001 .246 .21400002 .19800002 .21400002 C .14200002 .21400002 .13700001 .26900003 .13700001 .296 C .13700001 .35300002 .16400002 .43 .19100002 .50200006 C .20200002 .531 .20800002 .545 .20800002 .56500008 C .20800002 .60700008 .17800002 .64500007 .12900001 .64500007 C .037 .64500007 0 .5 0 .49200005 C 0 .48800005 .0040000008 .48300005 .011000002 .48300005 C .020000002 .48300005 .021 .48700006 .025 .50100007 C .049000004 .58500006 .087000008 .62500008 .12600002 .62500008 C .135 .62500008 .15200001 .62500008 .15200001 .592 C .15200001 .56600007 .14100002 .537 .12600002 .499 C .077 .36800004 .077 .33500005 .077 .31100003 C .077 .216 .14500001 .194 .19500003 .194 C .22400002 .194 .26 .20300001 .29500003 .24000001 L .296 .23900001 C .28100003 .18 .271 .141 .23600002 .09200001 Z "/>
</symbol>
<use xlink:href="#font_1_4" transform="matrix(11.9552,0,0,-11.9552,246.50879,51.199865)"/>
<symbol id="font_3_3">
<path d="M .621 .18599999 C .635 .18599999 .653 .18599999 .653 .204 C .653 .22300002 .63600006 .22300002 .621 .22300002 L .032 .22300002 C .018000003 .22300002 0 .22300002 0 .20500002 C 0 .18599999 .017 .18599999 .032 .18599999 L .621 .18599999 M .621 0 C .635 0 .653 0 .653 .017999992 C .653 .037 .63600006 .037 .621 .037 L .032 .037 C .018000003 .037 0 .037 0 .018999994 C 0 0 .017 0 .032 0 L .621 0 Z "/>
</symbol>
<use xlink:href="#font_3_3" transform="matrix(11.9552,0,0,-11.9552,256.28858,47.111185)"/>
<symbol id="font_1_2">
<path d="M .395 .606 C .41500003 .606 .42300005 .606 .42300005 .62500008 C .42300005 .63500007 .41500003 .63500007 .397 .63500007 L .316 .63500007 C .335 .73800006 .349 .809 .35700003 .841 C .36300005 .865 .38400004 .888 .41000004 .888 C .43100003 .888 .45200003 .879 .462 .87 C .42300005 .86600008 .411 .837 .411 .82000008 C .411 .8 .42600004 .78800007 .44500003 .78800007 C .46500004 .78800007 .495 .805 .495 .84300008 C .495 .88500007 .453 .90800008 .409 .90800008 C .36600004 .90800008 .32400004 .87600007 .30400003 .837 C .286 .80200007 .27600003 .76600006 .25300003 .63500007 L .18600002 .63500007 C .16700001 .63500007 .157 .63500007 .157 .61700007 C .157 .606 .16300002 .606 .18300002 .606 L .24700001 .606 C .229 .513 .18800001 .287 .165 .18 C .14800002 .093 .13300002 .019999996 .083000008 .019999996 C .08000001 .019999996 .051000004 .019999996 .033000005 .039000006 C .08400001 .042999999 .08400001 .087000008 .08400001 .08800001 C .08400001 .10800001 .069000009 .120000008 .05 .120000008 C .029999998 .120000008 0 .10300001 0 .065 C 0 .022 .044000005 0 .083000008 0 C .18500002 0 .22700003 .18300002 .238 .23300001 C .256 .31 .305 .57600006 .31000004 .606 L .395 .606 Z "/>
</symbol>
<use xlink:href="#font_1_2" transform="matrix(11.9552,0,0,-11.9552,268.6787,51.199865)"/>
<symbol id="font_3_1">
<path d="M .22700002 .008000001 C .22700002 .011000007 .22700002 .013000011 .21000003 .030000002 C .11 .13100001 .054000006 .296 .054000006 .5 C .054000006 .694 .10100001 .86100009 .21700002 .9790001 C .22700002 .98800006 .22700002 .99 .22700002 .99300006 C .22700002 .9990001 .22200002 1.001 .21800001 1.001 C .205 1.001 .12300001 .929 .074 .8310001 C .023000002 .73 0 .623 0 .5 C 0 .411 .013999999 .29200004 .066 .18500002 C .125 .06500001 .207 0 .21800001 0 C .22200002 0 .22700002 .002000004 .22700002 .008000001 Z "/>
</symbol>
<use xlink:href="#font_3_1" transform="matrix(11.9552,0,0,-11.9552,276.2866,51.761758)"/>
<symbol id="font_1_3">
<path d="M .44600005 .418 C .41400004 .412 .402 .388 .402 .36900003 C .402 .345 .42100004 .337 .43500004 .337 C .46500004 .337 .486 .363 .486 .39000003 C .486 .432 .43800003 .451 .39600004 .451 C .335 .451 .30100004 .391 .29200004 .372 C .26900003 .447 .20700002 .451 .18900001 .451 C .087 .451 .033000005 .32 .033000005 .298 C .033000005 .294 .037000006 .289 .044000005 .289 C .052000006 .289 .054 .29500003 .056000007 .299 C .09 .41 .157 .43100003 .18600002 .43100003 C .231 .43100003 .24000001 .389 .24000001 .365 C .24000001 .343 .23400003 .32 .222 .272 L .18800001 .135 C .17300001 .075 .14400001 .020000002 .091000009 .020000002 C .08600001 .020000002 .061 .020000002 .040000004 .033000005 C .076000008 .040000004 .08400001 .07 .08400001 .082 C .08400001 .102000009 .069000009 .114 .05 .114 C .026 .114 0 .093 0 .061000006 C 0 .019000002 .047000003 0 .09 0 C .13800001 0 .172 .038000004 .19300002 .079 C .20900002 .020000002 .259 0 .296 0 C .39800004 0 .45200003 .13100001 .45200003 .15300001 C .45200003 .158 .448 .16200002 .44200004 .16200002 C .43300004 .16200002 .432 .157 .42900003 .14900002 C .402 .061000006 .344 .020000002 .29900003 .020000002 C .26400004 .020000002 .245 .046000005 .245 .087000008 C .245 .109000008 .24900002 .125 .26500003 .19100002 L .3 .327 C .31500004 .387 .349 .43100003 .395 .43100003 C .397 .43100003 .425 .43100003 .44600005 .418 Z "/>
</symbol>
<use xlink:href="#font_1_3" transform="matrix(11.9552,0,0,-11.9552,280.00276,48.880556)"/>
<symbol id="font_3_2">
<path d="M .227 .5 C .227 .57600006 .21700001 .70000007 .161 .816 C .102 .9360001 .02 1.001 .009 1.001 C .004999999 1.001 0 .9990001 0 .99300006 C 0 .99 0 .98800006 .017 .9710001 C .117 .87 .17300001 .70500007 .17300001 .50100007 C .17300001 .307 .126 .14000002 .010000002 .022 C 0 .013000011 0 .011000007 0 .008000001 C 0 .002000004 .004999999 0 .009 0 C .022000004 0 .104 .07200001 .153 .17000002 C .204 .272 .227 .38000003 .227 .5 Z "/>
</symbol>
<use xlink:href="#font_3_2" transform="matrix(11.9552,0,0,-11.9552,286.97755,51.761758)"/>
</g>
<path transform="matrix(1,0,0,-1,.199,184.416)" stroke-width="1" stroke-linecap="butt" stroke-miterlimit="10" stroke-linejoin="miter" fill="none" stroke="#808080" d="M 153.33322 83.45828 L 153.33322 87.70988 M 268.33317 83.45828 L 268.33317 87.70988 M 383.33308 83.45828 L 383.33308 87.70988 "/>
<path transform="matrix(1,0,0,-1,.199,184.416)" stroke-width="1" stroke-linecap="butt" stroke-miterlimit="10" stroke-linejoin="miter" fill="none" stroke="#808080" d="M 36.20734 0 L 40.45926 0 M 36.20734 42.79204 L 40.45926 42.79204 M 36.20734 128.37615 L 40.45926 128.37615 M 36.20734 171.16819 L 40.45926 171.16819 "/>
<path transform="matrix(1,0,0,-1,.199,184.416)" stroke-width="1" stroke-linecap="butt" stroke-miterlimit="10" stroke-linejoin="miter" fill="none" stroke="#000000" d="M 0 85.58409 L 385.1739 85.58409 "/>
<path transform="matrix(1,0,0,-1,385.3729,98.83191)" d="M 1.99252 0 L -1.19551 1.59401 L 0 0 L -1.19551 -1.59401 "/>
<path transform="matrix(1,0,0,-1,.199,184.416)" stroke-width="1" stroke-linecap="butt" stroke-miterlimit="10" stroke-linejoin="miter" fill="none" stroke="#000000" d="M 38.3333 0 L 38.3333 169.17566 "/>
<path transform="matrix(0,-1,-1,-0,38.532304,15.240341)" d="M 1.99252 0 L -1.19551 1.59401 L 0 0 L -1.19551 -1.59401 "/>
<symbol id="font_4_1">
<path d="M .20900002 .37200005 C .192 .37200005 .18300003 .37200005 .18300003 .35100005 C .18300003 .34100003 .19100002 .34100003 .208 .34100003 L .23600003 .34100003 C .25500003 .34100003 .31300003 .33900003 .31300003 .25800003 C .31300003 .24000001 .30400003 .141 .252 .08100001 C .224 .047000003 .178 .022000002 .13300002 .022000002 C .083 .022000002 .033 .052 .030999996 .126 C .07400001 .122 .087000008 .15900001 .087000008 .17400001 C .087000008 .19000001 .076 .20600002 .052999997 .20600002 C .0019999967 .20600002 0 .14600002 0 .128 C 0 .060000004 .048 0 .13300002 0 C .259 0 .38500003 .105000007 .38500003 .22500001 C .38500003 .24400002 .381 .31700004 .305 .35200004 C .409 .38700003 .46700005 .47800005 .46700005 .554 C .46700005 .63900008 .402 .688 .32400004 .688 C .20500002 .688 .10400001 .58300009 .10400001 .49800004 C .10400001 .46300004 .123 .43400005 .16000003 .43400005 C .19700003 .43400005 .24300003 .46900005 .24300003 .519 C .24300003 .53800007 .23200003 .56900009 .22000003 .56900009 C .21400002 .56900009 .20900002 .56400009 .20900002 .558 C .20900002 .55500009 .21000001 .55300006 .21300003 .54700008 C .21400002 .54600009 .22100002 .53300008 .22100002 .518 C .22100002 .48400004 .18900001 .45600004 .16000003 .45600004 C .14000002 .45600004 .134 .47500003 .134 .49300004 C .134 .572 .22500003 .66600009 .32200004 .66600009 C .35900004 .66600009 .40700004 .64800009 .40700004 .57600006 C .40700004 .56000009 .397 .37200005 .23200003 .37200005 L .20900002 .37200005 Z "/>
</symbol>
<use xlink:href="#font_4_1" transform="matrix(9.9626,0,0,-9.9626,151.93144,111.192188)"/>
<symbol id="font_4_2">
<path d="M .136 .028 C .07700001 .028 .065 .09 .065 .119 C .065 .19800002 .111 .42600004 .24400002 .42600004 C .25800003 .42600004 .28 .42600004 .29700003 .40200005 C .30600003 .39000006 .31500004 .37000004 .31500004 .33900003 C .31500004 .29300005 .28 .157 .26000003 .118 C .234 .071 .192 .028 .136 .028 M .112 .36100004 C .13500002 .45100004 .15900001 .517 .20500002 .57600006 C .236 .61500009 .289 .66300007 .35000003 .66300007 C .372 .66300007 .40500004 .65900006 .41500003 .623 C .367 .623 .36200003 .582 .36200003 .57500007 C .36200003 .56100007 .37 .54300007 .39600004 .54300007 C .43 .54300007 .448 .57100006 .448 .609 C .448 .65900006 .411 .688 .351 .688 C .26900003 .688 .17900002 .63100007 .10700001 .52900007 C .022 .40900005 0 .25000004 0 .18 C 0 .15300001 0 0 .134 0 C .26000003 0 .38700003 .142 .38700003 .29200004 C .38700003 .34200005 .36 .44800005 .24700001 .44800005 C .18600002 .44800005 .14200002 .40500004 .112 .36100004 Z "/>
</symbol>
<use xlink:href="#font_4_2" transform="matrix(9.9626,0,0,-9.9626,267.17854,111.192188)"/>
<symbol id="font_4_3">
<path d="M .33600004 .32800005 C .31000004 .222 .28500004 .162 .24100003 .106000009 C .22 .080000009 .17200002 .028 .110000018 .028 C .082 .028 .048000009 .035000005 .03500001 .064 C .083000008 .068 .08600001 .108 .08600001 .113000009 C .08600001 .127 .07800001 .14500001 .052 .14500001 C .018000007 .14500001 0 .116000007 0 .080000009 C 0 .027000003 .046000005 0 .10800001 0 C .20400003 0 .28800003 .08100001 .335 .148 C .43500004 .28900004 .44900004 .46600006 .44900004 .51000007 C .44900004 .53700008 .44900004 .688 .319 .688 C .18800003 .688 .061000006 .54600009 .061000006 .39800004 C .061000006 .35300005 .08600001 .24100001 .201 .24100001 C .261 .24100001 .305 .28100003 .33600004 .32800005 M .20400003 .263 C .13300002 .263 .13300002 .33600004 .13300002 .35000003 C .13300002 .38800005 .16300002 .52300009 .19100002 .573 C .20300001 .595 .24600002 .66300007 .31700004 .66300007 C .36800004 .66300007 .38400004 .61500009 .38400004 .572 C .38400004 .5 .34100003 .263 .20400003 .263 Z "/>
</symbol>
<use xlink:href="#font_4_3" transform="matrix(9.9626,0,0,-9.9626,382.01713,111.192188)"/>
<symbol id="font_5_1">
<path d="M .57600006 0 C .59300008 0 .611 0 .611 .019999996 C .611 .040000008 .59300008 .040000008 .57600006 .040000008 L .035000005 .040000008 C .018 .040000008 0 .040000008 0 .019999996 C 0 0 .018 0 .035000005 0 L .57600006 0 Z "/>
</symbol>
<use xlink:href="#font_5_1" transform="matrix(9.9626,0,0,-9.9626,15.9278969,184.9196)"/>
<symbol id="font_6_2">
<path d="M .205 .64000007 C .205 .66400006 .205 .666 .18200003 .666 C .120000008 .60200008 .032000007 .60200008 0 .60200008 L 0 .57100006 C .020000004 .57100006 .07900001 .57100006 .13100001 .597 L .13100001 .079 C .13100001 .043 .128 .031000002 .038000004 .031000002 L .0060000049 .031000002 L .0060000049 0 C .04100001 .003 .128 .003 .168 .003 C .20800002 .003 .29500003 .003 .33000005 0 L .33000005 .031000002 L .29800005 .031000002 C .20800002 .031000002 .205 .042000005 .205 .079 L .205 .64000007 Z "/>
</symbol>
<symbol id="font_6_1">
<path d="M .421 .34200005 C .421 .42200003 .416 .50200006 .381 .57600006 C .335 .67200008 .25300003 .688 .211 .688 C .15100001 .688 .07800001 .66200008 .037000006 .56900009 C .0050000029 .5 0 .42200003 0 .34200005 C 0 .26700003 .0040000008 .177 .045000007 .101 C .088 .020000002 .161 0 .21000001 0 C .264 0 .34 .021000002 .384 .116000007 C .416 .185 .421 .263 .421 .34200005 M .21000001 .022000002 C .171 .022000002 .112 .047000003 .094 .143 C .083000008 .20300001 .083000008 .29500003 .083000008 .35400004 C .083000008 .41800005 .083000008 .48400004 .091000009 .53800007 C .11 .65700009 .185 .66600009 .21000001 .66600009 C .243 .66600009 .30900003 .64800009 .328 .549 C .338 .49300004 .338 .41700004 .338 .35400004 C .338 .279 .338 .21100001 .32700003 .147 C .312 .052 .255 .022000002 .21000001 .022000002 Z "/>
</symbol>
<use xlink:href="#font_6_2" transform="matrix(9.9626,0,0,-9.9626,23.736674,187.211)"/>
<use xlink:href="#font_6_1" transform="matrix(9.9626,0,0,-9.9626,28.219845,187.43018)"/>
<use xlink:href="#font_5_1" transform="matrix(9.9626,0,0,-9.9626,20.909897,142.12862)"/>
<symbol id="font_6_3">
<path d="M .39900003 .223 C .39900003 .34200005 .317 .44200004 .209 .44200004 C .16100002 .44200004 .118000019 .42600004 .082 .39100004 L .082 .586 C .10200001 .58000007 .135 .573 .16700001 .573 C .29 .573 .36 .66400006 .36 .67700007 C .36 .683 .357 .688 .35 .688 C .349 .688 .347 .688 .342 .68500009 C .322 .67600008 .273 .656 .20600002 .656 C .16600001 .656 .120000008 .66300007 .073 .6840001 C .065 .68700006 .06300001 .68700006 .061000009 .68700006 C .051000004 .68700006 .051000004 .679 .051000004 .66300007 L .051000004 .36700005 C .051000004 .34900005 .051000004 .34100003 .065 .34100003 C .07200001 .34100003 .074 .34400005 .07800001 .35000003 C .08900002 .36600004 .12600002 .42000006 .207 .42000006 C .259 .42000006 .284 .37400005 .292 .35600005 C .308 .31900005 .31 .28000004 .31 .23 C .31 .19500001 .31 .135 .286 .093 C .262 .054000006 .22500001 .028 .17900002 .028 C .106000009 .028 .049000008 .08100001 .032 .14000002 C .035 .13900002 .038000008 .13800001 .049000008 .13800001 C .082 .13800001 .09900001 .163 .09900001 .187 C .09900001 .21100001 .082 .23600002 .049000008 .23600002 C .035 .23600002 0 .22900002 0 .18300002 C 0 .097 .069000009 0 .18100001 0 C .297 0 .39900003 .096 .39900003 .223 Z "/>
</symbol>
<use xlink:href="#font_6_3" transform="matrix(9.9626,0,0,-9.9626,28.329133,144.63919)"/>
<use xlink:href="#font_6_3" transform="matrix(9.9626,0,0,-9.9626,28.32913,59.471178)"/>
<use xlink:href="#font_6_2" transform="matrix(9.9626,0,0,-9.9626,23.73667,16.460007)"/>
<use xlink:href="#font_6_1" transform="matrix(9.9626,0,0,-9.9626,28.219841,16.679184)"/>
<symbol id="font_7_1">
<path d="M .305 .31300003 C .311 .33900003 .334 .43100003 .404 .43100003 C .409 .43100003 .433 .43100003 .454 .418 C .426 .41300003 .40600003 .388 .40600003 .36400003 C .40600003 .34800003 .417 .32900004 .444 .32900004 C .46600003 .32900004 .498 .34700004 .498 .38700003 C .498 .43900005 .439 .45300005 .405 .45300005 C .347 .45300005 .312 .40000005 .3 .37700004 C .275 .44300003 .221 .45300005 .19200002 .45300005 C .08800001 .45300005 .031000002 .32400004 .031000002 .29900003 C .031000002 .28900004 .041 .28900004 .043000007 .28900004 C .051000008 .28900004 .054000006 .291 .056 .3 C .09 .40600003 .156 .43100003 .19000001 .43100003 C .209 .43100003 .244 .42200003 .244 .36400003 C .244 .33300004 .22700002 .26600004 .19000001 .126 C .17400001 .064 .13900002 .022000002 .095000009 .022000002 C .08900001 .022000002 .06600001 .022000002 .045 .035 C .07000001 .040000004 .09200001 .061 .09200001 .089 C .09200001 .116000007 .07000001 .124000009 .055000009 .124000009 C .025 .124000009 0 .098000008 0 .06600001 C 0 .020000002 .050000006 0 .094000007 0 C .16000001 0 .19600001 .07000001 .19900002 .076000008 C .21100001 .039 .24700003 0 .307 0 C .41 0 .467 .12900001 .467 .15400002 C .467 .16400002 .458 .16400002 .455 .16400002 C .446 .16400002 .444 .16000001 .442 .15300001 C .409 .046 .341 .022000002 .30900003 .022000002 C .27 .022000002 .254 .054 .254 .08800001 C .254 .11000001 .26 .13200002 .271 .17600002 L .305 .31300003 Z "/>
</symbol>
<use xlink:href="#font_7_1" transform="matrix(9.9626,0,0,-9.9626,391.31193,101.07259)"/>
<symbol id="font_7_2">
<path d="M .45700003 .586 C .461 .6 .461 .602 .461 .609 C .461 .62700006 .447 .63600006 .432 .63600006 C .42200003 .63600006 .40600003 .63 .397 .615 C .395 .61 .387 .579 .38300003 .561 C .37600003 .535 .36900003 .508 .363 .48100005 L .318 .301 C .314 .286 .271 .21600002 .20500002 .21600002 C .15400002 .21600002 .143 .26000003 .143 .29700003 C .143 .34300003 .16000001 .40500004 .194 .49300004 C .21000001 .53400006 .21400002 .545 .21400002 .56500008 C .21400002 .61 .18200001 .6470001 .13200002 .6470001 C .037 .6470001 0 .50200006 0 .49300004 C 0 .48300005 .01 .48300005 .012 .48300005 C .022000002 .48300005 .023 .485 .028000003 .50100007 C .055000009 .595 .095000009 .625 .12900001 .625 C .13700001 .625 .15400002 .625 .15400002 .59300008 C .15400002 .568 .14400001 .54200008 .13700001 .523 C .097 .41700004 .079 .36 .079 .31300003 C .079 .224 .142 .194 .201 .194 C .24000003 .194 .274 .21100001 .30200003 .23900002 C .289 .187 .277 .13800001 .237 .08500001 C .21100001 .051 .17300001 .022 .127 .022 C .113000009 .022 .068 .025000006 .051000008 .06400001 C .067 .06400001 .080000009 .06400001 .094000007 .076000008 C .104 .08500001 .11400001 .098000008 .11400001 .117000009 C .11400001 .148 .087000008 .15200001 .07700001 .15200001 C .054000006 .15200001 .021 .136 .021 .087000008 C .021 .037 .065000008 0 .127 0 C .23 0 .333 .091000009 .361 .20400001 L .45700003 .586 Z "/>
</symbol>
<use xlink:href="#font_7_2" transform="matrix(9.9626,0,0,-9.9626,36.208917,9.725332)"/>
</svg>